<?xml version="1.0" standalone="no"?>
<!DOCTYPE svg PUBLIC "-//W3C//DTD SVG 20010904//EN"
 "http://www.w3.org/TR/2001/REC-SVG-20010904/DTD/svg10.dtd">
<svg version="1.0" xmlns="http://www.w3.org/2000/svg"
 width="512.000000pt" height="512.000000pt" viewBox="0 0 512.000000 512.000000"
 preserveAspectRatio="xMidYMid meet">

<g transform="translate(0.000000,512.000000) scale(0.100000,-0.100000)"
fill="#000000" stroke="none">
<path d="M1054 4781 c-23 -10 -52 -34 -65 -52 l-24 -34 -3 -907 -2 -906 -43
-7 c-103 -17 -206 -95 -248 -188 l-24 -52 -3 -700 c-2 -622 -1 -706 14 -749
36 -114 130 -197 242 -219 l61 -11 3 -267 c3 -253 4 -269 24 -296 73 -98 195
-98 268 0 20 27 21 43 24 298 l3 269 23 0 c94 0 203 73 256 171 l35 64 0 720
0 720 -24 52 c-42 93 -145 171 -248 188 l-43 7 0 896 0 897 -23 40 c-24 43
-92 85 -137 85 -14 0 -43 -9 -66 -19z m226 -2861 l0 -640 -160 0 -160 0 0 640
0 640 160 0 160 0 0 -640z"/>
<path d="M2494 4781 c-23 -10 -52 -34 -65 -52 -24 -34 -24 -37 -27 -301 l-3
-266 -42 -7 c-103 -17 -206 -95 -248 -188 l-24 -52 -3 -700 c-2 -622 -1 -706
14 -749 36 -114 130 -197 243 -219 l61 -12 2 -907 c3 -902 3 -907 24 -935 73
-98 195 -98 268 0 21 28 21 33 24 938 l2 909 23 0 c95 0 204 73 257 171 l35
64 0 720 0 720 -24 52 c-42 93 -145 171 -248 188 l-43 7 0 256 c0 247 -1 259
-23 297 -24 43 -92 85 -137 85 -14 0 -43 -9 -66 -19z m226 -1581 l0 -640 -160
0 -160 0 0 640 0 640 160 0 160 0 0 -640z"/>
<path d="M3934 4781 c-23 -10 -52 -34 -65 -52 l-24 -34 -3 -907 -2 -906 -43
-7 c-103 -17 -206 -95 -248 -188 l-24 -52 -3 -700 c-2 -622 -1 -706 14 -749
36 -114 130 -197 242 -219 l61 -11 3 -267 c3 -253 4 -269 24 -296 73 -98 195
-98 268 0 20 27 21 43 24 298 l3 269 23 0 c94 0 203 73 256 171 l35 64 0 720
0 720 -24 52 c-42 93 -145 171 -248 188 l-43 7 0 896 0 897 -23 40 c-24 43
-92 85 -137 85 -14 0 -43 -9 -66 -19z m226 -2861 l0 -640 -160 0 -160 0 0 640
0 640 160 0 160 0 0 -640z"/>
</g>
</svg>
