<svg id="Layer_1" data-name="Layer 1" xmlns="http://www.w3.org/2000/svg" viewBox="0 0 64 64"><defs><style>.cls-1{fill:none;}.cls-2{fill:#bababa;}</style></defs><title>Artboard 29</title><path class="cls-1" d="M49.33,10.73v-3H14.61v3h-1.5v-3h-2a3.35,3.35,0,0,0-3.34,3.34V52.93a3.35,3.35,0,0,0,3.34,3.34H52.94a3.34,3.34,0,0,0,3.33-3.34V11.07a3.34,3.34,0,0,0-3.33-3.34H50.83v3Z"/><path class="cls-2" d="M52.94,6.23H50.83v-3h-1.5v7.53h1.5v-3h2.11a3.34,3.34,0,0,1,3.33,3.34v4H7.73v-4a3.35,3.35,0,0,1,3.34-3.34h2v3h1.5V3.2h-1.5v3h-2a4.84,4.84,0,0,0-4.84,4.84V52.93a4.84,4.84,0,0,0,4.84,4.84H52.94a4.84,4.84,0,0,0,4.83-4.84V11.07A4.84,4.84,0,0,0,52.94,6.23Zm3.33,46.7a3.34,3.34,0,0,1-3.33,3.34H11.07a3.35,3.35,0,0,1-3.34-3.34V16.61H56.27Z"/><rect class="cls-2" x="16.94" y="6.23" width="30.11" height="1.5"/><path class="cls-2" d="M25.68,22.13H13.06a1.39,1.39,0,0,0-1.39,1.39v2.21a1.4,1.4,0,0,0,1.39,1.39H25.68a1.39,1.39,0,0,0,1.39-1.39V23.52A1.39,1.39,0,0,0,25.68,22.13Zm.39,3.6a.4.4,0,0,1-.39.39H13.06a.4.4,0,0,1-.39-.39V23.52a.4.4,0,0,1,.39-.39H25.68a.4.4,0,0,1,.39.39Z"/><path class="cls-2" d="M51,22.13H38.29a1.36,1.36,0,0,0-1.36,1.36v2.27a1.36,1.36,0,0,0,1.36,1.36H51a1.36,1.36,0,0,0,1.36-1.36V23.49A1.36,1.36,0,0,0,51,22.13Zm.36,3.63a.36.36,0,0,1-.36.36H38.29a.36.36,0,0,1-.36-.36V23.49a.36.36,0,0,1,.36-.36H51a.36.36,0,0,1,.36.36Z"/><path class="cls-2" d="M25.68,45H13.06a1.4,1.4,0,0,0-1.39,1.39v2.21a1.39,1.39,0,0,0,1.39,1.39H25.68a1.39,1.39,0,0,0,1.39-1.39V46.34A1.39,1.39,0,0,0,25.68,45Zm.39,3.6a.39.39,0,0,1-.39.39H13.06a.39.39,0,0,1-.39-.39V46.34a.4.4,0,0,1,.39-.39H25.68a.4.4,0,0,1,.39.39Z"/><path class="cls-2" d="M51,45H38.29a1.36,1.36,0,0,0-1.36,1.36v2.27a1.36,1.36,0,0,0,1.36,1.36H51a1.36,1.36,0,0,0,1.36-1.36V46.31A1.36,1.36,0,0,0,51,45Zm.36,3.63a.36.36,0,0,1-.36.36H38.29a.36.36,0,0,1-.36-.36V46.31a.36.36,0,0,1,.36-.36H51a.36.36,0,0,1,.36.36Z"/></svg>