<svg aria-hidden="true" focusable="false" data-prefix="far" data-icon="facebook" class="svg-inline--fa fa-eye fa-w-18" role="img" xmlns="http://www.w3.org/2000/svg" viewBox="0 0 64 64"><path fill="currentColor" d="M34.05,49.52H28.12A1.43,1.43,0,0,1,26.7,48.1V32.87h-2a1.42,1.42,0,0,1-1.42-1.42V26.56a1.43,1.43,0,0,1,1.42-1.42h2V21.43a7,7,0,0,1,7-6.95h5.6a1.43,1.43,0,0,1,1.42,1.42v4.89a1.43,1.43,0,0,1-1.42,1.42H35.94a.47.47,0,0,0-.46.47v2.46h3.7a1.42,1.42,0,0,1,1.42,1.54l-.42,4.89a1.42,1.42,0,0,1-1.41,1.3H35.48V48.1A1.43,1.43,0,0,1,34.05,49.52Zm-5.34-2h4.76V30.86h4.76l.31-3.71H33.47V22.68a2.48,2.48,0,0,1,2.47-2.48h2.73V16.49h-5a5,5,0,0,0-4.95,4.94v5.72H25.33v3.71h3.38ZM38.18,31.4h0Z"/><path fill="currentColor" d="M44.32,5.14H19.68A14.55,14.55,0,0,0,5.14,19.68V44.32A14.55,14.55,0,0,0,19.68,58.86H44.32A14.55,14.55,0,0,0,58.86,44.32V19.68A14.55,14.55,0,0,0,44.32,5.14ZM55.71,44.32A11.4,11.4,0,0,1,44.32,55.71H19.68A11.4,11.4,0,0,1,8.29,44.32V19.68A11.4,11.4,0,0,1,19.68,8.29H44.32A11.4,11.4,0,0,1,55.71,19.68Zm0,0"/></svg>