<svg id="Layer_1" data-name="Layer 1" xmlns="http://www.w3.org/2000/svg" viewBox="0 0 64 64"><title>Artboard 2</title><path d="M44.32,5.14H19.68A14.55,14.55,0,0,0,5.14,19.68V44.32A14.55,14.55,0,0,0,19.68,58.86H44.32A14.55,14.55,0,0,0,58.86,44.32V19.68A14.55,14.55,0,0,0,44.32,5.14ZM55.71,44.32A11.4,11.4,0,0,1,44.32,55.71H19.68A11.4,11.4,0,0,1,8.29,44.32V19.68A11.4,11.4,0,0,1,19.68,8.29H44.32A11.4,11.4,0,0,1,55.71,19.68Zm0,0"/><path d="M32,17.31A14.69,14.69,0,1,0,46.69,32,14.71,14.71,0,0,0,32,17.31Zm0,26.23A11.54,11.54,0,1,1,43.54,32,11.56,11.56,0,0,1,32,43.54Zm0,0"/><path d="M47,12.1a4.34,4.34,0,1,0,4.34,4.34A4.34,4.34,0,0,0,47,12.1Zm0,5.53a1.19,1.19,0,1,1,1.19-1.19A1.19,1.19,0,0,1,47,17.63Zm0,0"/></svg>