<svg class="svg-icon" style="width: 1.3642578125em;height: 1em;vertical-align: middle;fill: currentColor;overflow: hidden;" viewBox="0 0 1397 1024" version="1.1" xmlns="http://www.w3.org/2000/svg"><path d="M742.012826 705.91921h-95.618176V304.21001a47.511888 47.511888 0 0 0-13.881878-33.594897A47.444171 47.444171 0 0 0 598.930415 256.695614H437.213432a47.476776 47.476776 0 0 0-47.476776 47.476776V705.881589h-98.364455a28.25282 28.25282 0 0 0-26.497208 15.148427 28.276646 28.276646 0 0 0 2.73374 30.397175l105.248964 121.952362 120.660733 140.524234a31.443018 31.443018 0 0 0 46.172606 0l120.660733-140.524234 105.248964-121.952362a28.226486 28.226486 0 0 0 2.733739-30.397175 28.25282 28.25282 0 0 0-26.497207-15.148427l0.175561 0.037621z m0 0"  /><path d="M917.210404 0H118.883282a118.096285 118.096285 0 0 0-82.426003 37.281684A118.059918 118.059918 0 0 0 4.592914 121.952362v205.456812a118.152715 118.152715 0 0 0 31.901985 84.582898 118.122619 118.122619 0 0 0 82.375842 37.244063h142.530648c19.713019-0.677165 35.35051-16.853879 35.35051-36.579438 0-19.725559-15.637491-35.902274-35.35051-36.579439H118.883282c-25.983064-1.040827-46.298007-22.797881-45.545602-48.793485V121.814421c-0.677165-25.945443 19.612699-47.627257 45.545602-48.668084h798.327122c25.970524 1.053367 46.260387 22.772801 45.545602 48.755865v205.456812c0.727325 25.983064-19.575078 47.715037-45.545602 48.755864h-142.455407a36.590725 36.590725 0 0 0-32.729631 17.919787 36.584455 36.584455 0 0 0 0 37.319304 36.629599 36.629599 0 0 0 32.729631 17.919787h142.455407c31.337682-1.003207 60.982451-14.421102 82.413463-37.306764a118.076221 118.076221 0 0 0 31.826745-84.683219V121.814421c2.094195-65.183381-49.056827-119.720226-114.240208-121.814421z m0 0"  /></svg>