<?xml version="1.0" encoding="utf-8"?>
<!-- Generator: Adobe Illustrator 25.2.0, SVG Export Plug-In . SVG Version: 6.00 Build 0)  -->
<svg version="1.1" id="Layer_1" xmlns="http://www.w3.org/2000/svg" xmlns:xlink="http://www.w3.org/1999/xlink" x="0px" y="0px"
	 viewBox="0 0 1000 1000" style="enable-background:new 0 0 1000 1000;" xml:space="preserve">
<style type="text/css">
	.st0{fill:#C1C1C6;}
</style>
<g>
	<g>
		<path class="st0" d="M686.16,622.62c63.92,0.79,127.88,0.63,191.84,0c21.71-0.24,37.01-11.17,42.6-33.24
			c3.78-41.15,4.64-82.25-0.47-123.36c-8.14-22.93-20.65-32.61-44.84-32.73c-62.62-0.28-125.28-0.35-187.91,0.04
			c-28.75,0.2-46.65,17.74-47.24,46.18c-0.63,31.9-0.55,63.84-0.08,95.78C640.53,604.17,657.32,622.26,686.16,622.62z
			 M663.69,484.63c0.31-20.49,7.91-27.61,29.07-27.81c30.01-0.31,60.03-0.08,90.04-0.08c29.38,0,58.73-0.28,88.11,0.08
			c20.69,0.24,28.09,7.71,28.32,28.6c0.39,28.64-0.08,57.35,0.16,85.99c0.16,18.61-8.89,27.97-27.3,28.01
			c-60.69,0.12-121.39,0.12-182.08-0.08c-17.39-0.04-26.43-9.01-26.43-26.71C663.66,543.28,663.26,513.93,663.69,484.63z
			 M640.05,339.16c0.7,28.78,17.85,46.76,46.14,47.31c31.98,0.62,63.99,0.67,95.96-0.03c25.87-0.56,43.27-16.7,44.26-42.7
			c1.29-33.85,1.27-67.81,0.04-101.66c-0.91-25.16-17.52-41.31-42.68-42.1c-33.26-1.04-66.6-1.04-99.87-0.02
			c-26.72,0.82-43.1,18.57-43.86,45.32c-0.45,15.64-0.08,31.29-0.08,46.94C639.99,307.86,639.67,323.52,640.05,339.16z
			 M663.63,248.44c0.07-16.86,9.29-25.07,25.69-25.18c29.96-0.21,59.93-0.23,89.9,0.05c14.66,0.14,23.63,7.88,23.87,22.71
			c0.51,31.22,0.58,62.45-0.03,93.67c-0.3,15.66-9.84,23.34-25.39,23.43c-14.98,0.09-29.97,0.02-44.95,0.02
			c-14.33,0-28.66,0.08-42.99-0.03c-16.42-0.13-25.87-8.12-26.04-24.88C663.39,308.29,663.51,278.36,663.63,248.44z M358.33,622.81
			c62.62,0.63,125.21,0.55,187.83-0.04c25.92-0.24,38.27-11.01,46.06-36.46c0.51-4.48,1.46-8.97,1.46-13.45
			c0.08-107.74,0.12-215.44,0-323.18c0-5.11-1.18-10.23-1.85-15.34c-8.46-24.78-21.08-34.54-47.6-34.65
			c-61.28-0.31-122.61-0.35-183.89,0c-32.53,0.2-49.92,17.31-50,49.33c-0.28,108.13-0.28,216.27,0,324.4
			C310.42,604.84,327.26,622.5,358.33,622.81z M333.98,253.26c0.04-23.33,7-29.86,30.92-29.93c58.1-0.16,116.2-0.16,174.3,0
			c23.56,0.08,30.56,7,30.68,30.21c0.2,52.12,0.04,104.28,0.04,156.44c0.04,52.16,0.12,104.32,0,156.48
			c-0.08,26.2-6.33,32.88-31.94,32.96c-57.47,0.24-114.9,0.28-172.33,0c-25.21-0.12-31.63-6.49-31.67-31.31
			C333.79,463.15,333.79,358.2,333.98,253.26z M946.2,715.53c-3.23-0.12-6.53-0.04-9.79-0.04c-231.1,0-462.19,0.04-693.29-0.04
			c-8.46,0-16.91-0.71-25.37-1.06c-0.04-163.48-0.08-327-0.2-490.47c0-9.76-0.9-19.47-1.38-29.19
			c-8.54-57.59-40.83-86.58-98.42-87.8c-22.81-0.51-45.67-0.2-68.52-0.08c-8.65,0.08-18.96,0.12-18.61,11.88
			c0.35,11.01,10.31,11.92,19.16,11.96c24.15,0.12,48.3-0.43,72.46,0.28c35.87,0.98,56.76,17.54,67.26,51.69
			c4.05,13.26,4.37,26.87,4.37,40.59c-0.08,163.64,0.2,327.27-0.35,490.91c-0.04,14.36,3.23,22.3,13.69,24.58h25.02
			c6.18-0.12,12.39-0.08,18.64,0h708.91c5.11-0.87,9.05-3.62,8.97-11.49C968.62,713.21,955.72,715.84,946.2,715.53z M400.99,756.19
			c-35.79,0-64.9,29.12-64.9,64.9c0,35.79,29.12,64.9,64.9,64.9c35.79,0,64.9-29.12,64.9-64.9
			C465.9,785.31,436.78,756.19,400.99,756.19z M400.99,866.33c-24.94,0-45.24-20.29-45.24-45.24s20.29-45.24,45.24-45.24
			c24.94,0,45.24,20.29,45.24,45.24S425.94,866.33,400.99,866.33z M760.09,756.19c-35.79,0-64.9,29.12-64.9,64.9
			c0,35.79,29.12,64.9,64.9,64.9s64.9-29.12,64.9-64.9C824.99,785.31,795.88,756.19,760.09,756.19z M760.09,866.33
			c-24.94,0-45.24-20.29-45.24-45.24s20.29-45.24,45.24-45.24s45.24,20.29,45.24,45.24S785.03,866.33,760.09,866.33z"/>
	</g>
</g>
</svg>
