<svg xmlns="http://www.w3.org/2000/svg" fill="none" viewBox="0 0 44 62"><g filter="url(#a)"><path fill="#440063" d="M22 3C12.05 3 4 10.82 4 20.5 4 33.63 22 45 22 45s18-11.38 18-24.5C40 10.82 31.95 3 22 3z"/><circle cx="22" cy="52.5" r="3.5" fill="#fff" stroke="#440063" stroke-width="2"/></g><path fill="#fff" d="M17 16a5.04 5.04 0 0 1 2.47-4.32c.78-.46 1.62-.68 2.53-.68a4.99 4.99 0 0 1 2.3 9.43 8.52 8.52 0 0 1 3.39 2.47c.7.79 1.26 1.64 1.68 2.57.41.91.62 1.75.62 2.52L29.01 29H14.99l-.98-1c0-.78.2-1.62.62-2.53.42-.93.98-1.78 1.68-2.57 1.01-1.16 2.14-1.99 3.39-2.47a4.95 4.95 0 0 1-1.97-1.8A5.04 5.04 0 0 1 17 16zm2-.06V16a3.1 3.1 0 0 0 1.49 2.62 3.08 3.08 0 0 0 3 0A3.04 3.04 0 0 0 25 15.99a3.04 3.04 0 0 0-3-3c-.2 0-.42.03-.62.07l.57 2.04-2.95.84zm8.83 11.07c-.14-.45-.35-.9-.62-1.37-.29-.5-.63-.97-1.01-1.42a7.32 7.32 0 0 0-1.97-1.6 4.5 4.5 0 0 0-2.23-.63c-.75 0-1.5.21-2.23.63-.7.38-1.36.92-1.97 1.6-.38.45-.72.92-1 1.42-.28.46-.49.92-.63 1.37h11.66z"/><defs><filter id="a" color-interpolation-filters="sRGB" width="44" height="62" x="0" y="0" filterUnits="userSpaceOnUse"><feFlood flood-opacity="0" result="BackgroundImageFix"/><feColorMatrix in="SourceAlpha" values="0 0 0 0 0 0 0 0 0 0 0 0 0 0 0 0 0 0 127 0"/><feOffset dy="1"/><feGaussianBlur stdDeviation="2"/><feColorMatrix values="0 0 0 0 0 0 0 0 0 0 0 0 0 0 0 0 0 0 0.08 0"/><feBlend in2="BackgroundImageFix" result="effect1_dropShadow"/><feBlend in="SourceGraphic" in2="effect1_dropShadow" result="shape"/></filter></defs></svg>