<?xml version="1.0" encoding="UTF-8"?>
<!DOCTYPE svg PUBLIC "-//W3C//DTD SVG 1.1//EN" "http://www.w3.org/Graphics/SVG/1.1/DTD/svg11.dtd">
<svg xmlns="http://www.w3.org/2000/svg" version="1.1" width="447px" height="512px" style="shape-rendering:geometricPrecision; text-rendering:geometricPrecision; image-rendering:optimizeQuality; fill-rule:evenodd; clip-rule:evenodd" xmlns:xlink="http://www.w3.org/1999/xlink">
<g><path style="opacity:0.965" fill="#000000" d="M 20.5,-0.5 C 155.5,-0.5 290.5,-0.5 425.5,-0.5C 429.919,1.35817 433.919,3.85817 437.5,7C 440.914,11.046 443.914,15.2127 446.5,19.5C 446.5,27.8333 446.5,36.1667 446.5,44.5C 444.554,46.3527 443.054,48.686 442,51.5C 439.304,54.9461 436.138,57.9461 432.5,60.5C 428.417,61.9148 424.417,63.4148 420.5,65C 288.833,65.6667 157.167,65.6667 25.5,65C 21.5833,63.4148 17.5833,61.9148 13.5,60.5C 11.9095,58.3674 9.90949,56.7007 7.5,55.5C 4.55479,51.9038 1.88813,48.2371 -0.5,44.5C -0.5,36.1667 -0.5,27.8333 -0.5,19.5C 2.08588,15.2127 5.08588,11.046 8.5,7C 12.0812,3.85817 16.0812,1.35817 20.5,-0.5 Z"/></g>
<g><path style="opacity:0.983" fill="#000000" d="M 297.5,511.5 C 247.833,511.5 198.167,511.5 148.5,511.5C 140.255,507.423 133.755,501.423 129,493.5C 128.178,491.212 127.511,488.878 127,486.5C 126.5,431.501 126.333,376.501 126.5,321.5C 109.163,321.667 91.8301,321.5 74.5,321C 59.7391,319.133 49.7391,311.299 44.5,297.5C 41.2061,285.079 43.7061,274.079 52,264.5C 102.167,214.333 152.333,164.167 202.5,114C 216.173,105.334 229.84,105.334 243.5,114C 294.414,165.581 345.581,216.748 397,267.5C 407.043,286.486 403.876,302.652 387.5,316C 382.298,318.297 376.964,319.964 371.5,321C 354.17,321.5 336.837,321.667 319.5,321.5C 319.667,376.501 319.5,431.501 319,486.5C 317.993,492.157 315.66,497.157 312,501.5C 307.675,505.732 302.842,509.065 297.5,511.5 Z"/></g>
</svg>
