<?xml version="1.0" encoding="UTF-8"?>
<!DOCTYPE svg PUBLIC "-//W3C//DTD SVG 1.1//EN" "http://www.w3.org/Graphics/SVG/1.1/DTD/svg11.dtd">
<svg xmlns="http://www.w3.org/2000/svg" version="1.1" width="64px" height="64px" style="shape-rendering:geometricPrecision; text-rendering:geometricPrecision; image-rendering:optimizeQuality; fill-rule:evenodd; clip-rule:evenodd" xmlns:xlink="http://www.w3.org/1999/xlink">
<g><path style="opacity:0.734" fill="#000000" d="M 29.5,-0.5 C 30.8333,-0.5 32.1667,-0.5 33.5,-0.5C 33.334,4.84372 33.5006,10.1771 34,15.5C 35.7448,14.0443 37.5781,12.711 39.5,11.5C 40.7199,11.8869 41.3865,12.7202 41.5,14C 38.8865,17.4 35.7199,20.2334 32,22.5C 28.9078,21.076 26.0745,19.2426 23.5,17C 20.8953,15.0692 20.8953,13.2358 23.5,11.5C 25.7534,12.2531 27.5867,13.5864 29,15.5C 29.4994,10.1771 29.666,4.84372 29.5,-0.5 Z"/></g>
<g><path style="opacity:0.794" fill="#000000" d="M 60.5,63.5 C 42.1667,63.5 23.8333,63.5 5.5,63.5C 4.87833,62.3734 4.04499,61.3734 3,60.5C 2.33333,46.5 2.33333,32.5 3,18.5C 3.83333,17.6667 4.66667,16.8333 5.5,16C 10.1548,15.5008 14.8215,15.3342 19.5,15.5C 19.67,16.8221 19.3366,17.9887 18.5,19C 14.8333,19.3333 11.1667,19.6667 7.5,20C 6.16667,21.3333 6.16667,22.6667 7.5,24C 21.8295,24.4999 36.1628,24.6666 50.5,24.5C 50.5,22.8333 50.5,21.1667 50.5,19.5C 48.4727,19.6621 46.4727,19.4955 44.5,19C 43.5494,18.2825 43.3828,17.4491 44,16.5C 47.3936,15.5442 50.8936,15.2108 54.5,15.5C 54.5,18.5 54.5,21.5 54.5,24.5C 56.5,24.5 58.5,24.5 60.5,24.5C 60.5,37.5 60.5,50.5 60.5,63.5 Z M 6.5,28.5 C 23.1667,28.5 39.8333,28.5 56.5,28.5C 56.5,31.5 56.5,34.5 56.5,37.5C 52.4862,37.3345 48.4862,37.5012 44.5,38C 43.1667,42.3333 43.1667,46.6667 44.5,51C 48.4862,51.4988 52.4862,51.6655 56.5,51.5C 56.5,54.1667 56.5,56.8333 56.5,59.5C 40.1633,59.6666 23.8299,59.4999 7.5,59C 6.51389,48.9158 6.18055,38.7491 6.5,28.5 Z M 48.5,41.5 C 51.1667,41.5 53.8333,41.5 56.5,41.5C 56.5,43.5 56.5,45.5 56.5,47.5C 53.8333,47.5 51.1667,47.5 48.5,47.5C 48.5,45.5 48.5,43.5 48.5,41.5 Z"/></g>
</svg>
