<svg class="custom-icon" id="Layer_1" data-name="Layer 1" xmlns="http://www.w3.org/2000/svg" viewBox="0 0 64 64">
                                    <defs>
                                        <style>
                                            .,
                                            .cls-2 {
                                                fill: ;
                                            }

                                            . {
                                                fill-rule: evenodd;
                                            }
                                        </style>
                                    </defs>
                                    <title></title>
                                    <path class=" " d="M59.09,23.05c-1.26,2.65-6.79,15.43-7.54,16.61l-.25.4c-.74,1.27-1.5,2.23-4.18,2.23h-28c-.05-.16-.09-.33-.13-.51-.5-2.17-6.48-22.18-6.9-23.76a3,3,0,0,0-2.57-1.7H4.07a1.19,1.19,0,0,1,0-2.37H9.52c2,0,3.94.11,4.77,2,0,.05,0,.1.05.15.23.86,5.19,18.45,6.61,23.79H47.12c1.53,0,1.68-.26,2.15-1,.09-.17.18-.32.29-.5.7-1.1,6.19-13.79,7.35-16.25.5-1.28.4-2,.27-2.18a1.06,1.06,0,0,0-.76-.2c-1.49,0-13,0-22.7,0H31.36V17.4h2.36c9.66,0,21.21,0,22.68,0a3.12,3.12,0,0,1,2.74,1.24C59.83,19.64,59.82,21.15,59.09,23.05Z" />
                                    <path class=" " d="M22.3,46.2a5.53,5.53,0,1,0,5.53,5.53A5.54,5.54,0,0,0,22.3,46.2Zm0,8.79a3.26,3.26,0,1,1,3.25-3.26A3.26,3.26,0,0,1,22.3,55Z" />
                                    <path class="" d="M44.79,46.2a5.53,5.53,0,1,0,5.52,5.53A5.54,5.54,0,0,0,44.79,46.2Zm0,8.79A3.26,3.26,0,1,1,48,51.73,3.26,3.26,0,0,1,44.79,55Z" />
                                    <path class="" d="M31.28,10.47V28.58a1.2,1.2,0,0,0,1.19,1.19,1.18,1.18,0,0,0,1.18-1.19V10.5l4.85.07.17-.17-6.2-6.2-6.2,6.2Z" />
                                </svg>
