<?xml version="1.0" encoding="utf-8"?>
<!-- Generator: Adobe Illustrator 25.2.0, SVG Export Plug-In . SVG Version: 6.00 Build 0)  -->
<svg version="1.1" id="Layer_1" xmlns="http://www.w3.org/2000/svg" xmlns:xlink="http://www.w3.org/1999/xlink" x="0px" y="0px"
	 viewBox="0 0 64 64" style="enable-background:new 0 0 64 64;" xml:space="preserve">
<style type="text/css">
	.st0{fill:#B7B3B2;}
</style>
<path id="Layer_5" class="st0" d="M12.18,23.15c2.78,0,5.56,0.03,8.34-0.02c1.15-0.02,1.64,0.42,1.6,1.57
	c-0.04,1.15,0.02,2.31-0.02,3.46c-0.02,0.67,0.19,0.99,0.89,0.89c0.05-0.01,0.11,0.01,0.16,0c4.69-1.13,6.73,2.6,9.41,5.14
	c0.45,0.42,0.33,0.97,0.33,1.48c0.01,2.47-0.05,4.93,0.02,7.39c0.04,1.29-0.43,1.88-1.73,1.76c-0.83-0.07-1.35,0.09-1.85,0.97
	c-1.53,2.68-5.12,2.65-6.69-0.02c-0.45-0.77-0.9-0.99-1.71-0.96c-1.26,0.06-2.52,0.02-3.78,0.02c-1.62,0-3.03-0.18-4.2,1.68
	c-1.29,2.05-4.57,1.65-5.87-0.5c-0.59-0.97-1.19-1.23-2.22-1.2c-2.51,0.06-2.51,0.02-2.51-2.54c0-5.72,0.04-11.44-0.03-17.15
	c-0.02-1.49,0.43-2.06,1.99-2C6.93,23.23,9.55,23.15,12.18,23.15z M12.15,25.1c-2.2,0-4.4,0.03-6.6-0.02
	c-0.82-0.02-1.22,0.13-1.2,1.09c0.06,2.88,0.06,5.76,0,8.64c-0.02,0.95,0.35,1.11,1.19,1.11c4.45-0.03,8.9-0.03,13.36,0
	c0.83,0.01,1.22-0.15,1.2-1.11c-0.06-2.88-0.06-5.76,0-8.64c0.02-0.95-0.37-1.11-1.19-1.1C16.66,25.13,14.41,25.1,12.15,25.1z
	 M13.04,37.94c-1.78,0-3.57,0-5.35,0c-3.33,0-3.35,0-3.29,3.33c0.01,0.5-0.5,1.38,0.56,1.5c0.76,0.08,1.39,0.08,1.91-0.86
	c1.34-2.42,4.68-2.91,6.18-0.73c1.11,1.61,2.34,1.69,3.9,1.63c1.41-0.06,2.83-0.01,4.25-0.01c0.46,0,0.86,0.01,1.21-0.48
	c2.37-3.34,4.89-3.34,7.23,0.01c0.26,0.37,0.48,0.49,0.87,0.45c0.58-0.06,0.41-0.5,0.42-0.84c0.02-0.68-0.09-1.38,0.02-2.04
	c0.53-3.23-0.69-5.57-3.11-7.77c-1.74-1.58-3.59-1.23-5.26-0.93c-1.11,0.19-0.27,1.98-0.45,3.04c-0.11,0.66-0.06,1.36-0.02,2.04
	c0.07,1.22-0.47,1.7-1.68,1.68C17.97,37.91,15.5,37.94,13.04,37.94z M12.2,43.77c-0.02-1.08-0.98-2.04-2.03-1.92
	c-1.11,0.12-1.81,0.76-1.87,1.93c-0.06,1.06,0.9,2.02,1.95,2.02C11.32,45.79,12.23,44.85,12.2,43.77z M24.05,43.85
	c0.02,1.06,1,1.99,2.04,1.94c1.06-0.05,1.94-1.03,1.85-2.1c-0.1-1.17-0.82-1.78-1.93-1.85C24.95,41.78,24.02,42.78,24.05,43.85z
	 M39.8,18.39c2.07-1.29,3.87-2.42,5.69-3.55c0.53-0.33,1.05-0.78,1.72-0.39c0.61,0.36,0.46,1,0.47,1.56c0.01,0.68,0,1.36,0,2.38
	c2-1.26,3.84-2.39,5.65-3.57c0.47-0.31,0.26-0.87,0.26-1.32c0.01-3.14,0.04-6.29-0.01-9.44c-0.02-1.24,0.47-1.69,1.67-1.65
	c1.57,0.06,3.14,0.04,4.72,0.01c1.06-0.02,1.52,0.45,1.52,1.51c-0.01,7.86-0.02,15.73,0,23.59c0,1.17-0.55,1.56-1.64,1.56
	c-9.44-0.02-18.87-0.02-28.31,0c-1.12,0-1.61-0.41-1.58-1.58c0.06-2.25,0.05-4.51,0-6.76c-0.02-0.85,0.31-1.33,1.01-1.76
	c2.29-1.38,4.52-2.84,6.79-4.23c1.41-0.86,2-0.51,2.04,1.13c0.01,0.37,0,0.73,0,1.1C39.8,17.35,39.8,17.71,39.8,18.39z M59.48,10.85
	c0-1.26,0-2.51,0-3.77c0-2.71,0-2.66-2.77-2.67c-1,0-1.21,0.31-1.2,1.25c0.06,2.98,0.02,5.96,0.02,8.95c0,2.67,0,2.62,2.73,2.64
	c0.96,0,1.28-0.23,1.23-1.22C59.42,14.3,59.48,12.57,59.48,10.85z M53.59,17.04c-1.95,1.22-3.63,2.27-5.31,3.31
	c-0.31,0.19-0.63,0.35-0.61,0.81c0.08,1.92-0.16,3.85,0.13,5.77c1.55,0.28,3.11,0.04,4.66,0.12c0.1,0,0.21-0.01,0.32,0
	c0.59,0.05,0.83-0.19,0.83-0.81C53.58,23.27,53.59,20.3,53.59,17.04z M37.85,17.07c-0.72,0.44-1.21,0.72-1.68,1.02
	c-1.41,0.9-3.38,1.5-4.05,2.79c-0.71,1.36-0.16,3.37-0.21,5.09c-0.02,0.75,0.1,1.15,1,1.09c1.3-0.08,2.62-0.07,3.92,0
	c0.86,0.04,1.05-0.31,1.04-1.1C37.82,23.1,37.85,20.23,37.85,17.07z M45.72,17.06c-1.64,1.01-3.01,1.94-4.47,2.73
	c-1.14,0.61-1.67,1.37-1.49,2.71c0.21,1.49-0.64,3.55,0.33,4.34c0.92,0.75,2.9,0.15,4.41,0.23c0.96,0.06,1.26-0.24,1.24-1.22
	C45.68,23.02,45.72,20.2,45.72,17.06z M55.54,23.03c0,0.47,0,0.95,0,1.41c0,2.69,0,2.64,2.75,2.64c1,0,1.25-0.32,1.21-1.26
	c-0.07-1.67-0.11-3.36,0.01-5.03c0.09-1.32-0.34-1.7-1.64-1.64c-2.32,0.1-2.33,0.02-2.33,2.3C55.54,21.98,55.54,22.5,55.54,23.03z
	 M45.61,61.56c-1.47,0-2.94,0-4.41,0c-0.76,0-1.43-0.22-1.39-1.11c0.03-0.86-0.4-0.9-1.06-0.89c-2.36,0.03-4.72-0.03-7.08,0.03
	c-1.3,0.03-1.76-0.47-1.72-1.77c0.06-2.2-0.28-4.5,2.23-5.74c0.5-0.25,0.1-0.65,0.02-0.96c-0.54-1.97-0.07-3.56,1.38-4.61
	c1.33-0.96,3.23-0.96,4.56-0.01c1.46,1.04,1.99,2.68,1.37,4.59c-0.19,0.59-0.22,0.93,0.41,1.23c0.63,0.29,1.06,0.86,1.37,1.47
	c0.2,0.39,0.45,0.37,0.76,0.23c0.35-0.17,0.19-0.41,0.09-0.65c-0.28-0.69-0.48-1.38-0.38-2.14c0.32-2.28,2.43-3.85,4.63-3.45
	c2.2,0.4,3.61,2.61,3.15,4.85c-0.09,0.45-0.78,1.01-0.14,1.36c0.79,0.42,0.75-0.64,1.17-0.93c0.21-0.15,0.35-0.43,0.58-0.52
	c0.95-0.39,0.89-0.96,0.61-1.84c-0.52-1.68,0.18-3.33,1.58-4.26c1.32-0.88,3.13-0.86,4.44,0.04c1.36,0.94,2.03,2.62,1.5,4.3
	c-0.26,0.83-0.22,1.21,0.54,1.74c1.5,1.03,2.3,4.67,1.55,6.36c-0.33,0.74-0.98,0.69-1.61,0.69c-2.36,0-4.72,0.02-7.08,0
	c-0.66-0.01-1.1,0.06-1.11,0.9c-0.01,0.87-0.63,1.11-1.41,1.1C48.65,61.55,47.13,61.56,45.61,61.56z M45.62,59.56
	c1.04,0,2.09,0.01,3.14,0c0.3,0,0.61,0.07,0.8-0.3c0.74-1.39-0.31-3.52-1.86-3.61c-1.36-0.08-2.72-0.08-4.08,0
	c-1.38,0.09-1.9,1.06-1.91,2.88c-0.02,1.66,1.17,0.9,1.88,1.01C44.25,59.64,44.94,59.56,45.62,59.56z M35.75,57.55
	c1.04,0,2.09,0.01,3.14,0c0.3,0,0.65,0.11,0.86-0.21c0.81-1.2-0.35-3.54-1.84-3.62c-1.36-0.08-2.72-0.07-4.07,0
	c-1.46,0.07-1.98,1.01-1.93,2.97c0.04,1.6,1.19,0.7,1.82,0.84C34.37,57.67,35.08,57.55,35.75,57.55z M55.6,57.55
	c0.89,0,1.78,0.02,2.67-0.01c0.39-0.01,0.85,0.2,1.14-0.26c0.63-1.03-0.25-3.41-1.43-3.51c-1.61-0.15-3.25-0.14-4.86-0.01
	c-1.18,0.1-1.67,1.32-1.51,3.02c0.13,1.43,1.18,0.61,1.8,0.73C54.11,57.66,54.87,57.55,55.6,57.55z M35.82,51.66
	c1.08,0.02,2.02-0.89,2.02-1.96c0-1.06-0.97-2.01-2.03-1.95c-1.16,0.07-1.8,0.77-1.92,1.88C33.77,50.69,34.74,51.64,35.82,51.66z
	 M43.74,51.66c-0.01,1.08,0.92,2.07,1.97,1.99c1.11-0.09,1.83-0.72,1.93-1.88c0.09-1.06-0.84-2.04-1.9-2.07S43.75,50.59,43.74,51.66
	z M55.45,47.75c-0.97,0.09-1.72,0.61-1.83,1.8c-0.11,1.13,0.72,2.1,1.84,2.09c1.15-0.01,1.88-0.59,2-1.78
	C57.56,48.74,56.72,47.8,55.45,47.75z M40.5,7.89c-0.93-0.15-0.81,0.83-0.9,1.28c-0.16,0.85,0.8,0.87,1.26,0.93
	c0.81,0.1,0.65-0.85,1.06-1.37C41.7,8.07,41.01,7.97,40.5,7.89z M21.74,8.55c-0.49,0.05-1.43,0.19-1.38,0.93
	c0.03,0.47,0.27,1.37,0.98,1.33c0.48-0.02,1.17-0.26,1.43-0.89C22.35,9.43,22.49,8.47,21.74,8.55z M37.04,8.94
	c1.03,0.2,0.81-0.73,0.9-1.24c0.19-1.08-0.82-0.74-1.28-0.84c-1.11-0.22-0.46,0.88-0.84,1.27C35.81,9.03,36.6,8.86,37.04,8.94z
	 M16.24,14.19c0.01-0.57-0.59-1.29-1.13-1.32c-0.53-0.03-1.22,0.61-1.26,1.19c-0.04,0.6,0.7,0.92,1.41,1.49
	C15.62,15.1,16.24,14.65,16.24,14.19z M54.99,35.97c-0.33,1.07,0.68,0.84,1.14,0.98c1.06,0.33,0.79-0.69,0.93-1.16
	c0.28-0.91-0.55-0.76-1-0.9C54.93,34.52,55.15,35.48,54.99,35.97z M10.07,19.12c-0.65,0.01-0.94,0.89-0.97,1.41
	c-0.03,0.63,0.82,0.81,1.3,0.87c0.77,0.1,0.65-0.86,1.11-1.21C11.24,19.47,10.55,19.11,10.07,19.12z M27.4,55.27
	c-0.98-0.21-0.97,0.49-1.12,1.08c-0.24,0.95,0.48,0.78,1,0.94c1.02,0.31,0.97-0.42,1.08-1.04C28.61,55.38,28,55.4,27.4,55.27z
	 M28.9,8.6c0.69-0.11,1.37-0.13,1.17-1.17c-0.1-0.53,0-1.1-0.83-0.92c-0.55,0.12-1.4-0.12-1.14,1.09C28.26,7.91,27.86,8.76,28.9,8.6
	z M24.12,8.04c0.05,0.45-0.07,1.45,0.93,1.31c0.48-0.07,1.29,0.05,1.21-0.84c-0.05-0.52-0.05-1.13-0.72-1.41
	C25.12,7.6,24.03,7.09,24.12,8.04z M44.09,9.54c-0.74-0.06-0.93,0.83-1,1.33c-0.09,0.65,0.74,0.85,1.19,0.93
	c0.8,0.16,0.74-0.82,1.25-1.22C45.22,9.94,44.61,9.58,44.09,9.54z M11.21,17.09c-0.03,0.65,0.8,1.05,1.32,1.09
	c0.52,0.04,1.01-0.72,1.04-1.2c0.04-0.66-0.77-0.87-1.24-1.29C11.76,16.02,11.24,16.57,11.21,17.09z M16.93,11.55
	c0.06,0.49,0.46,1.3,1.16,1.21c0.46-0.06,1.26-0.38,1.17-1.02c-0.07-0.52-0.4-1.14-1.05-1.41C17.77,10.8,16.83,10.86,16.93,11.55z
	 M23.45,54.31c-1.06-0.26-0.88,0.73-1,1.18c-0.24,0.96,0.76,0.83,1.22,0.95c1.06,0.28,0.49-0.91,1.07-1.26
	C24.57,54.46,23.96,54.43,23.45,54.31z M19.61,52.7c-0.54,0.04-0.87,0.82-0.88,1.29c-0.01,0.72,0.85,0.94,1.35,0.97
	c0.75,0.05,0.64-0.91,1.04-1.36C20.8,52.97,20.15,52.66,19.61,52.7z M31.95,7.4c-0.07,0.91,0.38,0.97,1.11,1.03
	c1.02,0.08,0.89-0.61,0.99-1.21c0.17-1.03-0.63-0.69-1.08-0.76C32.1,6.24,32,6.7,31.95,7.4z M54.76,38.62
	c-0.86-0.06-0.91,0.85-0.92,1.32c-0.01,0.76,0.91,0.87,1.4,0.86c0.75-0.02,0.53-0.98,0.95-1.46C55.86,38.76,55.26,38.65,54.76,38.62
	z M15.36,51.86c0.04,0.59,0.84,1.1,1.34,1.08c0.57-0.02,1.03-0.79,1.01-1.37c-0.02-0.58-0.77-0.73-1.25-1.11
	C15.95,50.86,15.31,51.29,15.36,51.86z M52.13,43.34c-0.04,0.72,0.83,1.05,1.29,1.08c0.66,0.03,0.98-0.85,1-1.36
	c0.03-0.69-0.89-0.65-1.47-1.19C52.63,42.41,52.15,42.87,52.13,43.34z M56.47,31.01c-0.96-0.11-0.9,0.45-0.97,1.1
	c-0.11,1.08,0.65,0.78,1.2,0.87c1.01,0.16,0.67-0.61,0.75-1.08C57.65,30.99,57.07,31.08,56.47,31.01z M12.69,49.48
	c0.01,0.38,0.49,0.95,0.93,0.85c0.58-0.12,1.11-0.67,1.19-1.25c0.05-0.36-0.48-0.74-1.03-0.95C13.47,48.63,12.67,48.81,12.69,49.48z
	 M50.65,25.15c1.27-0.03,0.96-0.81,0.97-1.48c0.01-0.74,0.28-1.57-1.07-1.54c-1.28,0.02-0.91,0.83-0.97,1.49
	C49.63,24.33,49.29,25.18,50.65,25.15z M34.79,22.13c-1.29,0.03-0.92,0.85-0.94,1.5c-0.02,0.74-0.28,1.56,1.06,1.52
	c1.28-0.03,0.91-0.83,0.97-1.49C35.86,22.91,36.13,22.1,34.79,22.13z M42.71,25.15c1.2,0,1.09-0.67,1.04-1.4
	c-0.05-0.68,0.41-1.61-0.99-1.62c-1.2,0-1.08,0.67-1,1.64C41.85,24.18,41.27,25.15,42.71,25.15z"/>
</svg>
