<svg id="Layer_1" data-name="Layer 1" xmlns="http://www.w3.org/2000/svg" viewBox="0 0 64 64"><title>Artboard 2 copy</title><path d="M41,29.4l-12.85-7a2.36,2.36,0,0,0-3.49,2.07V38.38a2.34,2.34,0,0,0,1.15,2,2.31,2.31,0,0,0,1.21.34,2.37,2.37,0,0,0,1.12-.29l12.84-6.9a2.36,2.36,0,0,0,0-4.15ZM28,36.62V26.21l9.6,5.25Zm0,0"/><path d="M60.64,20.37v0c0-.47-.54-4.63-2.56-6.75a9.49,9.49,0,0,0-6.27-2.94l-.29,0h-.1C43.73,10.06,32.13,10,32,10h0c-.12,0-11.73.08-19.48.64h-.1l-.28,0a9.26,9.26,0,0,0-6.23,3C4,15.78,3.42,19.86,3.36,20.32v.05c0,.2-.43,4.84-.43,9.49v4.35c0,4.65.41,9.29.43,9.49v0c.05.46.54,4.54,2.55,6.66a9.64,9.64,0,0,0,6.48,2.9l.58.07.13,0c4.44.42,18.35.63,18.95.64h0c.12,0,11.72-.08,19.41-.64h.1l.33,0a9,9,0,0,0,6.17-3c1.93-2.09,2.49-6.17,2.55-6.63v0c0-.2.43-4.84.43-9.49V29.86c0-4.65-.41-9.29-.43-9.49Zm-3,13.84c0,4.31-.37,8.74-.41,9.15-.14,1.12-.73,3.7-1.67,4.72a5.64,5.64,0,0,1-4,1.87l-.36,0c-7.44.54-18.61.62-19.12.62S17.79,50.39,13.49,50l-.71-.09a6.31,6.31,0,0,1-4.36-1.82l0,0c-.93-1-1.5-3.37-1.64-4.67,0-.31-.41-4.8-.41-9.17V29.86c0-4.3.37-8.73.41-9.15C6.92,19.39,7.52,17,8.42,16a5.93,5.93,0,0,1,4.1-2l.28,0c7.55-.54,18.8-.62,19.2-.62s11.65.08,19.13.62l.3,0a6.07,6.07,0,0,1,4.17,1.89h0c.93,1,1.5,3.42,1.64,4.74,0,.29.41,4.79.41,9.17Zm0,0"/></svg>